<svg id="Layer_2" data-name="Layer 2" xmlns="http://www.w3.org/2000/svg" xmlns:xlink="http://www.w3.org/1999/xlink" viewBox="0 0 2266.18 3000"><defs><style>.cls-1{fill:url(#linear-gradient);}.cls-2{fill:url(#linear-gradient-2);}</style><linearGradient id="linear-gradient" x1="-456.77" y1="1172.43" x2="1989.86" y2="1676.51" gradientTransform="matrix(1, 0, 0, -1, 0, 3000)" gradientUnits="userSpaceOnUse"><stop offset="0" stop-color="#753a88"/><stop offset="0.77" stop-color="#cc2b5e"/></linearGradient><linearGradient id="linear-gradient-2" x1="-440.47" y1="1250.79" x2="1592.73" y2="1554.92" gradientTransform="matrix(1, 0, 0, -1, 0, 3000)" gradientUnits="userSpaceOnUse"><stop offset="0.11" stop-color="#cc2b5e"/><stop offset="1" stop-color="#753a88"/></linearGradient></defs><path class="cls-1" d="M1849.61,121.58l-371,1097.19h684.57c56.89,0,103,41.93,103.05,93.7,0,23.92-10,46.94-28.06,64.35L590.06,2970.48c-39,37.71-104.16,39.53-145.61,4.07C415.81,2950,405,2912.8,416.6,2878.61l371-1097.38H103.05c-56.89,0-103-41.93-103-93.7,0-23.93,10-47,28.06-64.35l1648-1593.66c32.79-31.73,85.29-38.72,126.7-16.87C1802.85,12.65,1863.76,79.84,1849.61,121.58Z" transform="translate(-0.05 0)"/><path class="cls-2" d="M590.06,2970.48,2238.15,1376.82c18-17.41,28.07-40.43,28.06-64.35,0-51.77-46.16-93.73-103.05-93.7H1478.59l371-1097.19c11.75-34.66-28.25-86.86-42.16-103.58L798.72,1500H1524.6L458.69,2984.72C499.71,3009.17,555.3,3004.11,590.06,2970.48Z" transform="translate(-0.05 0)"/></svg>